<?xml version="1.0" encoding="UTF-8" standalone="no"?>
<!-- Created with Inkscape (http://www.inkscape.org/) -->

<svg
   width="64"
   height="64"
   viewBox="0 0 16.933333 16.933333"
   version="1.1"
   id="svg5543"
   inkscape:version="1.2.2 (b0a8486541, 2022-12-01)"
   sodipodi:docname="CablesLogo.svg"
   xmlns:inkscape="http://www.inkscape.org/namespaces/inkscape"
   xmlns:sodipodi="http://sodipodi.sourceforge.net/DTD/sodipodi-0.dtd"
   xmlns:xlink="http://www.w3.org/1999/xlink"
   xmlns="http://www.w3.org/2000/svg"
   xmlns:svg="http://www.w3.org/2000/svg"
   xmlns:rdf="http://www.w3.org/1999/02/22-rdf-syntax-ns#"
   xmlns:cc="http://creativecommons.org/ns#"
   xmlns:dc="http://purl.org/dc/elements/1.1/">
  <sodipodi:namedview
     id="namedview5545"
     pagecolor="#ffffff"
     bordercolor="#000000"
     borderopacity="0.25"
     inkscape:showpageshadow="2"
     inkscape:pageopacity="0.0"
     inkscape:pagecheckerboard="0"
     inkscape:deskcolor="#d1d1d1"
     inkscape:document-units="mm"
     showgrid="false"
     inkscape:zoom="11.987318"
     inkscape:cx="32.117276"
     inkscape:cy="31.366482"
     inkscape:window-width="1920"
     inkscape:window-height="998"
     inkscape:window-x="0"
     inkscape:window-y="1080"
     inkscape:window-maximized="1"
     inkscape:current-layer="layer1" />
  <defs
     id="defs5540">
    <radialGradient
       inkscape:collect="always"
       xlink:href="#linearGradient3000"
       id="radialGradient3699"
       gradientUnits="userSpaceOnUse"
       cx="44.645542"
       cy="98.057228"
       fx="44.645542"
       fy="98.057228"
       r="19.467436"
       gradientTransform="matrix(1.4964761,0.02117156,-0.02003765,1.4163439,-48.05719,-85.399106)" />
    <linearGradient
       id="linearGradient3000">
      <stop
         style="stop-color:#9ff9f9;stop-opacity:1;"
         offset="0"
         id="stop3002" />
      <stop
         style="stop-color:#e3e3e3;stop-opacity:1;"
         offset="1"
         id="stop3004" />
    </linearGradient>
  </defs>
  <g
     inkscape:label="Layer1"
     inkscape:groupmode="layer"
     id="layer1">
    <g
       id="g4226"
       transform="matrix(0.09150006,-0.24093321,0.24093321,0.09150006,-1.5612296,12.044385)"
       style="display:inline">
      <path
         sodipodi:nodetypes="cccccccc"
         id="path3727"
         d="M 7.8249854,13.691201 C -0.76764567,27.943674 -2.4430118,54.698249 9.5470936,62.650237 24.509962,71.561196 43.834506,58.1725 56.454591,46.119784 62.169692,40.784034 59.129338,29.023591 52.149934,33.977215 44.042707,41.690248 35.333388,51.131192 24.379444,51.177662 9.3026396,49.084926 22.480419,36.475701 25.925333,30.216603 l -15.0405,-14.108145 z"
         style="display:inline;overflow:visible;visibility:visible;opacity:1;fill:url(#radialGradient3699);fill-opacity:1;fill-rule:evenodd;stroke:#302b00;stroke-width:0.992741;stroke-linecap:butt;stroke-linejoin:miter;stroke-miterlimit:4;stroke-dasharray:none;stroke-dashoffset:0;stroke-opacity:1;marker:none;marker-start:none;marker-mid:none;marker-end:none;enable-background:accumulate"
         inkscape:connector-curvature="0" />
      <path
         id="path3725"
         style="display:inline;overflow:visible;opacity:1;fill:#c8f9f9;fill-rule:evenodd;stroke:#302b00;stroke-width:2.1559;stroke-linejoin:round;marker:none;marker-start:none;marker-mid:none;marker-end:none;enable-background:accumulate"
         transform="rotate(-46.486683)"
         d="M 1.5240381,27.316864 A 5.1790094,12.108826 0 0 1 -3.6549714,39.42569 5.1790094,12.108826 0 0 1 -8.8339808,27.316864 5.1790094,12.108826 0 0 1 -3.6549714,15.208038 5.1790094,12.108826 0 0 1 1.5240381,27.316864 Z" />
      <path
         style="display:inline;fill:#fce94f;fill-opacity:1;stroke:#302b00;stroke-width:0.718634;stroke-dasharray:none;stroke-opacity:1"
         d="M 36.311795,-1.5389333 C 34.190468,-0.61935189 20.562136,15.312519 16.565477,20.139138 c 0.278755,1.492228 2.830713,3.757036 4.022711,4.438622 3.256096,-3.013823 17.82035,-16.6344779 24.18908,-17.329686 -0.635092,2.574189 -7.847089,-7.59973119 -8.465473,-8.7870073 z"
         id="path9431"
         sodipodi:nodetypes="ccccc" />
      <path
         style="display:inline;fill:#046dd1;fill-opacity:1;stroke:#302b00;stroke-width:0.718634;stroke-dasharray:none;stroke-opacity:1"
         d="m 17.484388,2.9870821 c 0.562209,2.8671717 -2.603722,8.8666399 -6.600381,13.6932589 -0.114074,3.147508 3.378386,4.458383 4.899468,4.262266 2.704548,-0.459133 11.503584,-10.124469 11.556462,-16.3355105 -1.944362,0.261376 -6.648439,-2.073123 -9.855549,-1.6200144 z"
         id="path4173"
         sodipodi:nodetypes="ccccc" />
      <path
         style="display:inline;fill:#7b7b7b;fill-opacity:1;stroke:#302b00;stroke-width:0.718634;stroke-dasharray:none;stroke-opacity:1"
         d="m 41.646654,16.836656 c -1.937011,-1.121028 -19.876873,0.26551 -24.163228,6.947555 -0.133652,2.404206 3.13677,5.36693 6.578805,4.206099 6.414535,-5.424331 17.834992,-2.519549 21.131253,-1.680925 -1.231335,-3.029521 -4.268187,-8.500641 -3.54683,-9.472729 z"
         id="path9375"
         sodipodi:nodetypes="ccccc" />
      <path
         id="ellipse9526"
         style="display:inline;overflow:visible;opacity:1;fill:#777777;fill-rule:evenodd;stroke:#302b00;stroke-width:1.43008;stroke-linejoin:round;marker:none;marker-start:none;marker-mid:none;marker-end:none;enable-background:accumulate"
         transform="rotate(-21.695397)"
         d="m 35.113216,36.286465 a 2.1294398,4.8641686 0 0 1 -2.12944,4.864168 2.1294398,4.8641686 0 0 1 -2.12944,-4.864168 2.1294398,4.8641686 0 0 1 2.12944,-4.864169 2.1294398,4.8641686 0 0 1 2.12944,4.864169 z" />
      <path
         id="ellipse9582"
         style="display:inline;overflow:visible;opacity:1;fill:#fce94f;fill-rule:evenodd;stroke:#302b00;stroke-width:1.22476;stroke-linejoin:round;marker:none;marker-start:none;marker-mid:none;marker-end:none;enable-background:accumulate"
         inkscape:transform-center-x="0.044667567"
         inkscape:transform-center-y="0.022795709"
         transform="rotate(-42.722532)"
         d="m 29.933937,29.591473 a 1.9405119,6.145329 0 0 1 -1.940512,6.145329 1.9405119,6.145329 0 0 1 -1.940512,-6.145329 1.9405119,6.145329 0 0 1 1.940512,-6.145329 1.9405119,6.145329 0 0 1 1.940512,6.145329 z" />
      <path
         id="ellipse9644"
         style="display:inline;overflow:visible;opacity:1;fill:#046dd1;fill-rule:evenodd;stroke:#302b00;stroke-width:1.16806;stroke-linejoin:round;marker:none;marker-start:none;marker-mid:none;marker-end:none;enable-background:accumulate"
         inkscape:transform-center-x="0.023804022"
         inkscape:transform-center-y="0.038108574"
         transform="matrix(0.45679403,-0.88957249,0.96107479,0.27628833,0,0)"
         d="M 5.3222501,21.950586 A 2.4079897,5.2328568 0 0 1 2.9142604,27.183443 2.4079897,5.2328568 0 0 1 0.50627065,21.950586 2.4079897,5.2328568 0 0 1 2.9142604,16.71773 2.4079897,5.2328568 0 0 1 5.3222501,21.950586 Z" />
      <path
         style="display:inline;fill:#c46500;fill-opacity:1;stroke:#302b00;stroke-width:1.02662;stroke-dasharray:none;stroke-opacity:1"
         d="m 49.461035,19.575873 c -1.061875,-0.600044 -3.641057,-0.621781 -5.870979,-0.253332 -0.642991,1.474916 -0.01166,3.096541 2.121888,4.417853 1.389228,-0.150166 2.664783,-0.206302 4.158595,-0.04233 1.206102,-0.659636 1.00383,-3.363605 -0.409504,-4.122195 z"
         id="path9735"
         sodipodi:nodetypes="cccccc" />
      <path
         style="display:inline;fill:#c46500;fill-opacity:1;stroke:#302b00;stroke-width:1.02662;stroke-dasharray:none;stroke-opacity:1"
         d="m 38.920668,0.15039999 c -0.654748,0.320878 1.372945,2.90180551 3.506498,4.22311751 1.389228,-0.150166 2.916788,-1.4640531 4.088689,-2.6254898 1.323483,-0.93673772 -1.172842,-4.6435588 -3.206564,-3.9375998 -2.144986,0.4930243 -3.238204,1.24089463 -4.388623,2.33997209 z"
         id="path12126"
         sodipodi:nodetypes="ccccc" />
      <path
         style="display:inline;fill:#c46500;fill-opacity:1;stroke:#302b00;stroke-width:1.02662;stroke-dasharray:none;stroke-opacity:1"
         d="m 20.060414,2.6705705 c -0.690645,0.3647001 1.443968,1.6522731 4.663094,1.648341 1.389228,-0.150166 1.329467,-1.9696682 1.982833,-3.0252257 0.247854,-1.24790318 -1.451826,-2.757604 -3.485548,-2.051645 -2.144986,0.4930243 -2.00996,2.3294523 -3.160379,3.4285297 z"
         id="path12130"
         sodipodi:nodetypes="ccccc" />
    </g>
  </g>
  <metadata
     id="metadata3270">
    <rdf:RDF>
      <cc:Work
         rdf:about="">
        <dc:rights>
          <cc:Agent>
            <dc:title>LGPL2+</dc:title>
          </cc:Agent>
        </dc:rights>
      </cc:Work>
    </rdf:RDF>
  </metadata>
</svg>
