<?xml version="1.0" encoding="UTF-8" standalone="no"?>
<!-- Created with Inkscape (http://www.inkscape.org/) -->

<svg
   xmlns:dc="http://purl.org/dc/elements/1.1/"
   xmlns:cc="http://creativecommons.org/ns#"
   xmlns:rdf="http://www.w3.org/1999/02/22-rdf-syntax-ns#"
   xmlns:svg="http://www.w3.org/2000/svg"
   xmlns="http://www.w3.org/2000/svg"
   xmlns:sodipodi="http://sodipodi.sourceforge.net/DTD/sodipodi-0.dtd"
   xmlns:inkscape="http://www.inkscape.org/namespaces/inkscape"
   width="300"
   height="300"
   id="svg3976"
   version="1.1"
   inkscape:version="0.48.2 r9819"
   sodipodi:docname="dodo.svg">
  <defs
     id="defs3" />
  <sodipodi:namedview
     inkscape:document-units="mm"
     id="base"
     pagecolor="#ffffff"
     bordercolor="#666666"
     borderopacity="1.0"
     inkscape:pageopacity="0.0"
     inkscape:pageshadow="2"
     inkscape:zoom="0.98994949"
     inkscape:cx="248.57339"
     inkscape:cy="217.74977"
     inkscape:current-layer="layer1"
     showgrid="false"
     inkscape:window-width="1360"
     inkscape:window-height="721"
     inkscape:window-x="-4"
     inkscape:window-y="-4"
     inkscape:window-maximized="1"
     units="px" />
  <metadata
     id="metadata4">
    <rdf:RDF>
      <cc:Work
         rdf:about="">
        <dc:format>image/svg+xml</dc:format>
        <dc:type
           rdf:resource="http://purl.org/dc/dcmitype/StillImage" />
        <dc:title />
      </cc:Work>
    </rdf:RDF>
  </metadata>
  <g
     inkscape:label="Layer 1"
     inkscape:groupmode="layer"
     id="layer1"
     transform="translate(0,-752.36208)">
    <g
       id="g3001"
       transform="matrix(0.89958215,0,0,0.89958215,320.82605,503.60589)">
      <path
         id="path3989"
         d="m -279.61607,287.39732 c -4.66806,0.031 -9.46915,0.6958 -14.625,2.5 -1.32781,0.79055 -2.28125,4.0625 -2.28125,4.0625 l 0.9375,1.0625 c -0.11053,-0.0295 -0.5,-0.15625 -0.5,-0.15625 0,0 -0.20977,9.43975 -5,15.71875 -9.79023,7.35042 -26.59375,14.625 -26.59375,14.625 l -0.1875,0.1875 c 0,0 -17.04516,5.81283 -16.40625,23.03125 -0.25395,12.93271 12.84375,24.28125 12.84375,24.28125 l -0.125,-12.375 c 2.61261,2.87484 17.10487,4.7406 19.0625,4.71875 8.6303,-0.42327 16.52263,-8.66106 26.40625,-11.625 5.65258,-0.94023 11.03943,-0.88906 15.65625,-0.625 l -1.59375,2.75 c 0,0 -25.19767,7.37297 -33.84375,15.65625 -9.69599,9.28914 -17.09555,22.49187 -18.1875,35.875 -0.63697,7.80681 3.9334,15.49567 8.34375,21.96875 4.86545,7.14103 19.1875,17.4375 19.1875,17.4375 0,0 11.2108,20.71203 19.4375,28.28125 2.7842,2.56169 13.15625,9.09375 13.15625,9.09375 0,0 9.18539,12.57758 15.90625,15.90625 8.44932,4.18473 28.03125,3.78125 28.03125,3.78125 0,0 2.20688,4.9406 5.8125,8.34375 3.0695,2.89715 9.57058,4.68653 13.28125,7.34375 0.59565,0.42654 1.23191,0.99527 1.875,1.625 -0.15064,3.19374 -0.51127,7.20818 -1.40625,9.71875 -0.97999,2.74904 -2.64132,5.36223 -4.8125,7.3125 -3.02483,2.71707 -8.56994,1.10486 -12.875,1 -3.98735,-0.0971 -13.125,-0.5 -13.125,-0.5 0,0 -16.45597,1.69277 -18.9375,3.53125 -1.55717,1.15365 -3.03125,6.8125 -3.03125,6.8125 0,0 3.47206,-1.71548 5.5625,-2.25 1.73005,-0.44237 12.625,1.75 12.625,1.75 l 14.65625,1.03125 -8.34375,5.53125 -5.3125,6.3125 c 0,0 -5.78877,4.21051 -7.5625,6.0625 -2.3034,2.40503 -3.03125,6.3125 -3.03125,6.3125 l 5.8125,-3.28125 c 0,0 7.55092,-2.68386 9.59375,-4.28125 6.42789,-5.02632 20.6875,-9.84375 20.6875,-9.84375 0,0 -5.22875,8.31962 -6.8125,11.09375 -1.27208,2.2282 -3.28125,3.5625 -3.28125,3.5625 l -6.0625,5.53125 0.75,4.3125 c 0,0 6.21827,-3.59687 7.84375,-5.0625 1.95814,-1.76557 7.5625,-1.5 7.5625,-1.5 l 12.375,-16.1875 c 0,0 7.09723,1.77937 9.875,1.9375 2.38068,0.13552 2.90678,2.15607 5.28125,2.375 3.10261,0.28606 0.69686,2.75908 3.28125,3.78125 1.77471,0.70193 2.78125,-2.53125 2.78125,-2.53125 0,0 0.64673,-3.2287 -0.5,-4.53125 -3.21518,-3.65205 -8.29431,-5.07871 -12.625,-8.59375 -1.97396,-1.53872 0.84803,-10.14648 0.5,-12.625 -0.23749,-1.69133 -0.27459,-3.85114 -0.1875,-6.09375 8.13634,5.01941 17.08401,8.97241 26.34375,11.15625 2.68657,0.63361 5.54264,1.19716 8.46875,1.65625 -0.13399,3.25431 -0.46016,7.53355 -1.40625,10.1875 -0.97999,2.74904 -2.64132,5.39348 -4.8125,7.34375 -3.02483,2.71707 -6.94768,4.36822 -10.84375,5.53125 -5.27336,1.57417 -16.40625,1.78125 -16.40625,1.78125 0,0 -6.36222,0.94277 -8.84375,2.78125 -1.55717,1.15365 -3.28125,4.8125 -3.28125,4.8125 0,0 3.97206,-1.74673 6.0625,-2.28125 1.73005,-0.44237 5.78125,-0.5 5.78125,-0.5 l 21.46875,1.25 1.03125,2.53125 -7.09375,4.03125 c 0,0 -6.53877,2.17926 -8.3125,4.03125 -2.3034,2.40503 -3.53125,9.34375 -3.53125,9.34375 l 0.75,1.78125 c 0,0 3.26967,-3.96511 5.3125,-5.5625 6.42789,-5.02632 21.96875,-9.84375 21.96875,-9.84375 0,0 -1.4475,6.31962 -3.03125,9.09375 -1.27208,2.2282 -5.0625,5.8125 -5.0625,5.8125 l 0.5,7.8125 2.28125,-1 c 0,0 0.90577,-4.59687 2.53125,-6.0625 1.95814,-1.76557 7.5625,-2.28125 7.5625,-2.28125 l 10.625,-17.65625 c 0,0 5.53473,-0.53313 8.3125,-0.375 2.38068,0.13552 4.71928,0.90607 7.09375,1.125 3.10261,0.28606 6.75936,-0.77217 9.34375,0.25 1.77471,0.70193 4.28125,3.78125 4.28125,3.78125 l 0.25,-3.53125 c 0,0 -3.7921,-5.18215 -6.5625,-6.5625 -3.80399,-1.89534 -8.42266,-1.14643 -12.625,-1.78125 -3.11993,-0.4713 -7.276,0.11182 -9.34375,-1.5 -1.97396,-1.53872 -2.18322,-4.58398 -2.53125,-7.0625 -0.614,-4.37271 0.17129,-11.68416 0.75,-16.0625 6.04059,0.24729 11.74352,-0.11054 16.15625,-1.375 26.299859,-7.53616 55.315229,-17.09103 70.468749,-40.65625 7.33915,-11.41309 10.28392,-28.24916 9.96875,-42.9375 -0.36738,-17.12118 -4.70726,-38.10546 -13.75,-49.5 -4.28639,-5.37114 -6.64577,-12.05375 -10.625,-17.65625 -3.04569,-4.28814 -6.98725,-7.88071 -10.09375,-12.125 -4.33756,-5.92623 -2.83936,-8.81226 -11.875,-18.5625 -6.07969,-6.56051 -12.290749,-14.69818 -22.218749,-16.5625 -8.46087,-1.58882 -19.8407,-1.85944 -26.625,4.8125 -5.60436,5.51155 -4.9375,20.1875 -4.9375,20.1875 0,0 -23.06057,-2.11363 -34.96875,-0.875 -10.92702,1.13658 -21.81674,6.11305 -32.71875,7.46875 -7.76986,0.96621 -23.46875,-0.40625 -23.46875,-0.40625 0,0 6.59213,-7.36464 8.59375,-10.71875 3.27202,-5.48292 6.17017,-9.53395 7.9375,-17.4375 1.40046,-6.26286 4.40602,-15.29372 2.15625,-24.5 -2.27431,-9.3067 -9.44666,-17.24593 -16.9375,-23.21875 -8.02009,-6.39481 -18.17334,-10.37982 -28.28125,-12.125 -5.9255,-1.02307 -11.6857,-2.03979 -17.6875,-2 z m -4.59375,29.34375 c 1.82451,0 3.3125,1.34148 3.3125,2.96875 0,1.62727 -1.48799,2.9375 -3.3125,2.9375 -1.82451,0 -3.28125,-1.31023 -3.28125,-2.9375 0,-1.62727 1.45674,-2.96875 3.28125,-2.96875 z m -42,23.15625 c 0.47474,0 0.84375,0.94703 0.84375,2.09375 0,1.14672 -0.36901,2.0625 -0.84375,2.0625 -0.47474,0 -0.875,-0.91578 -0.875,-2.0625 0,-1.14672 0.40026,-2.09375 0.875,-2.09375 z"
         style="fill:#000000;fill-opacity:1;stroke:none"
         inkscape:connector-curvature="0" />
      <path
         transform="matrix(0.51048952,0,0,0.51048952,-401.54471,244.79742)"
         d="m 230.17857,146.38004 c 0,1.13415 -0.91941,2.05357 -2.05357,2.05357 -1.13416,0 -2.05357,-0.91942 -2.05357,-2.05357 0,-1.13416 0.91941,-2.05358 2.05357,-2.05358 1.13416,0 2.05357,0.91942 2.05357,2.05358 z"
         sodipodi:ry="2.0535715"
         sodipodi:rx="2.0535715"
         sodipodi:cy="146.38004"
         sodipodi:cx="228.125"
         id="path4589"
         style="fill:#000000;fill-opacity:1;fill-rule:evenodd;stroke:#000000;stroke-width:1px;stroke-linecap:butt;stroke-linejoin:miter;stroke-opacity:1"
         sodipodi:type="arc" />
      <path
         sodipodi:nodetypes="ccc"
         inkscape:connector-curvature="0"
         id="path4595"
         d="m -331.25,360.21933 c 11.62741,-2.168 16.60328,-9.42464 27.14285,-11.25 8.52213,-1.62997 14.63468,-4.94288 20.53572,-7.5"
         style="fill:none;stroke:#ffffff;stroke-width:0.99921262;stroke-linecap:round;stroke-linejoin:miter;stroke-miterlimit:4;stroke-opacity:1;stroke-dasharray:none" />
      <path
         sodipodi:nodetypes="cssssscccccsccsccsccsccsccsscsccc"
         inkscape:connector-curvature="0"
         id="path4602"
         d="m -230.60616,388.3946 c 0,0 -11.96292,14.93586 -11.61676,23.73858 0.50715,12.89669 14.43759,21.54903 19.69798,33.33504 5.46884,12.25304 5.49824,26.71646 12.12183,38.38579 2.00149,3.52618 4.91578,6.55763 8.08122,9.09138 11.66368,9.3361 25.15908,16.63174 39.20655,21.71828 5.05668,1.831 15.84676,3.03045 15.84676,3.03045 l 0.82076,-5.99778 8.27061,-0.12626 -1.01015,-7.00794 11.11168,1.51523 c 0,0 -4.58138,-6.27885 -7.51301,-8.77571 -2.12126,-1.80666 -7.1342,-4.35627 -7.1342,-4.35627 l 11.61675,-1.51523 c 0,0 -3.36186,-3.68875 -5.30329,-5.24017 -1.6783,-1.34113 -5.42958,-3.4724 -5.42958,-3.4724 l 4.67196,-2.90419 c 0,0 -1.88829,-3.82197 -3.53554,-5.05076 -1.70697,-1.27333 -6.06091,-2.02031 -6.06091,-2.02031 l 4.73509,-2.0203 c 0,0 -1.31457,-2.52878 -2.16916,-3.66086 -0.7862,-1.04147 -2.6922,-2.842 -2.6922,-2.842 l 5.68211,-1.07328 c 0,0 -1.40871,-3.98381 -3.03046,-6.06092 -0.95524,-1.22344 -4.73509,-3.40926 -4.73509,-3.40926 l 5.74524,-1.13643 c 0,0 -4.78827,-4.42172 -7.57614,-6.06091 -3.44972,-2.02835 -7.26735,-3.43401 -11.11168,-4.54569 -2.79193,-0.80736 -8.5863,-1.51523 -8.5863,-1.51523 0,0 -1.70764,-4.88137 -3.53553,-6.56599 -2.16208,-1.99262 -8.08122,-3.53553 -8.08122,-3.53553 1.53973,-7.31937 -0.80067,-12.83639 7.57614,-13.63706 4.39376,-0.33319 13.13199,1.51523 13.13199,1.51523"
         style="fill:none;stroke:#ffffff;stroke-width:1px;stroke-linecap:butt;stroke-linejoin:miter;stroke-opacity:1" />
      <path
         sodipodi:nodetypes="cssssscssscscssccscsssccscc"
         inkscape:connector-curvature="0"
         id="path4604"
         d="m -143.39286,370.93361 c 0,0 0.18734,-13.07569 3.57143,-17.32143 3.6184,-4.53972 10.55018,-7.04479 16.60715,-7.5 5.91929,-0.44486 12.7985,1.19179 18.21428,4.28572 5.081139,2.90275 12.040479,11.33255 16.785719,18.03571 3.26127,4.6069 5.07171,9.66487 8.21428,14.10714 3.29243,4.6541 10,11.25 11.07143,13.03572 0.35714,4.82142 -0.62028,6.75895 -2.85714,8.57142 -1.63903,1.32805 -6.36084,0.31143 -8.92858,-1.25 -1.9333,-1.17563 -1.97247,-4.39842 -3.92857,-5.53571 -1.0343,-0.60135 -3.57142,-0.35714 -3.57142,-0.35714 0,0 4.74866,4.1616 6.42857,6.78571 2.07391,3.23957 2.96872,6.8325 4.28571,10.71429 -3.27238,1.55046 -8.39467,3.08688 -11.78571,1.07143 -2.45235,-1.45755 -1.61751,-5.62407 -3.39286,-7.85714 -0.87424,-1.09964 -3.39286,-2.50001 -3.39286,-2.50001 l -0.71429,6.78572 c 0,0 -4.012219,-4.36256 -5.357129,-6.96429 -1.11533,-2.15761 -2.14286,-6.96428 -2.14286,-6.96428 0,0 -3.02915,1.56212 -4.64286,1.42856 -2.12233,-0.17565 -4.55561,-1.07035 -5.71429,-2.85714 -1.49117,-2.29951 0.99669,-5.74607 0.53572,-8.57142 -0.33107,-2.02912 -2.32143,-5.71429 -2.32143,-5.71429 l -2.85714,6.07143 c 0,0 -5.38388,-5.4194 -7.5,-8.57143 -1.48376,-2.21012 -4.10714,-6.78572 -4.10714,-6.78572 -7.48073,-6.39483 -8.33334,-1.54762 -12.50001,-2.14285 z"
         style="fill:#eaeaea;fill-opacity:1;stroke:none" />
    </g>
  </g>
</svg>
