<?xml version="1.0" encoding="UTF-8" standalone="no"?>
<!-- Created with Inkscape (http://www.inkscape.org/) -->
<!--
SPDX-License-Identifier: LGPL-3.0-or-later
SPDX-FileCopyrightText: 2025 Frank David Martínez Muñoz <mnesarco@gmail.com>
SPDX-FileNotice: Part of the File Explorer addon.
-->
<svg
   width="64"
   height="64"
   viewBox="0 0 16.933333 16.933333"
   version="1.1"
   id="svg1"
   inkscape:version="1.4.2 (ebf0e940d0, 2025-05-08)"
   sodipodi:docname="icon.svg"
   xmlns:inkscape="http://www.inkscape.org/namespaces/inkscape"
   xmlns:sodipodi="http://sodipodi.sourceforge.net/DTD/sodipodi-0.dtd"
   xmlns="http://www.w3.org/2000/svg"
   xmlns:svg="http://www.w3.org/2000/svg">
  <sodipodi:namedview
     id="namedview1"
     pagecolor="#ffffff"
     bordercolor="#000000"
     borderopacity="0.25"
     inkscape:showpageshadow="2"
     inkscape:pageopacity="0.0"
     inkscape:pagecheckerboard="0"
     inkscape:deskcolor="#d1d1d1"
     inkscape:document-units="mm"
     inkscape:zoom="6.2734375"
     inkscape:cx="23.591532"
     inkscape:cy="45.349938"
     inkscape:window-width="1920"
     inkscape:window-height="1016"
     inkscape:window-x="1920"
     inkscape:window-y="0"
     inkscape:window-maximized="1"
     inkscape:current-layer="layer1" />
  <defs
     id="defs1">
    <inkscape:path-effect
       effect="fillet_chamfer"
       id="path-effect2"
       is_visible="true"
       lpeversion="1"
       nodesatellites_param="F,0,0,1,0,1.0583333,0,1 @ F,0,0,1,0,1.0583333,0,1 @ F,0,0,1,0,1.0583333,0,1 @ F,0,0,1,0,1.0583333,0,1 @ F,0,0,1,0,1.0583333,0,1 @ F,0,0,1,0,1.0583333,0,1"
       radius="4"
       unit="px"
       method="auto"
       mode="F"
       chamfer_steps="1"
       flexible="false"
       use_knot_distance="true"
       apply_no_radius="true"
       apply_with_radius="true"
       only_selected="false"
       hide_knots="false" />
  </defs>
  <g
     inkscape:label="Layer 1"
     inkscape:groupmode="layer"
     id="layer1">
    <path
       id="rect1"
       style="fill:#002255;stroke-width:0.841628;stroke-linecap:round;stroke-linejoin:round;paint-order:markers fill stroke;stroke:#ffffff"
       d="m 0.63251953,2.3445597 0,12.7289393 A 1.0583333,1.0583333 45 0 0 1.6908528,16.131832 H 15.410946 a 1.0583333,1.0583333 135 0 0 1.058333,-1.058333 V 5.254932 A 1.0609693,1.0609693 45.071264 0 0 15.410949,4.193966 L 9.050488,4.1781438 A 1.9120457,1.9120457 29.107423 0 1 7.4324601,3.2772864 L 6.6989372,2.1001007 A 1.8725078,1.8725078 28.597373 0 0 5.0810301,1.2180854 L 1.6907287,1.270017 A 1.0746687,1.0746687 134.56121 0 0 0.63251953,2.3445597 Z"
       inkscape:path-effect="#path-effect2"
       inkscape:original-d="M 0.63251953,1.2862264 V 16.131832 H 16.469279 V 4.1965987 L 7.992158,4.1755111 6.1392393,1.201876 Z"
       sodipodi:nodetypes="ccccccc"
       transform="matrix(0.97454892,0,0,0.97454892,0.10044866,0.05208359)" />
    <g
       id="g2"
       transform="matrix(0.33606714,0,0,0.33606714,4.0463766,6.106568)"
       style="stroke-width:1.57458">
      <path
         d="m 22,3.9997423 -3.999742,4.0002581 h -8 V 10.999806 H 14 v 4.000259 h -3.999742 v 4.999678 L 5.9999997,24 h 4.0503843 c 0.30326,-1e-6 0.571883,-0.195269 0.66559,-0.48369 l 0.723985,-2.22828 c 0.06925,-0.213087 0.236489,-0.379833 0.449583,-0.449065 l 0.556553,-0.180868 c 0.213108,-0.06926 0.446577,-0.03248 0.627866,0.09922 l 1.894968,1.377173 c 0.245331,0.178232 0.57787,0.178229 0.823203,0 l 1.698598,-1.234547 c 0.245363,-0.178242 0.347963,-0.493948 0.254247,-0.782378 l -0.723984,-2.22828 c -0.06926,-0.213109 -0.03197,-0.446575 0.09974,-0.627866 l 0.344164,-0.473355 c 0.131697,-0.181276 0.34179,-0.288856 0.565855,-0.28887 l 2.343001,5.1e-4 c 0.303278,10e-6 0.571885,-0.19577 0.66559,-0.484207 l 0.649054,-1.996771 c 0.0937,-0.288413 -0.0089,-0.60465 -0.254247,-0.782895 L 19.538664,11.858666 C 19.357381,11.726957 19.250306,11.516889 19.250311,11.292812 V 10.70732 c 1.9e-5,-0.224072 0.107062,-0.434681 0.288353,-0.566372 L 21.711646,8.5622376 C 21.892924,8.4305313 21.999999,8.219938 22,7.9958659 Z"
         style="fill:#418fde;fill-opacity:1;fill-rule:evenodd;stroke:none;stroke-width:4.16584;stroke-linecap:square"
         id="path8" />
      <path
         id="path7"
         style="display:inline;fill:#ff585d;fill-opacity:1;fill-rule:evenodd;stroke:none;stroke-width:4.16584;stroke-linecap:square"
         d="m 18,0 -4,4 h 4 V 8 L 22,4 V 0 Z M 6,16 2,20 v 4 h 4 l 4,-4 H 6 Z" />
      <path
         d="M 6,0 2,4 V 20 L 6,16 V 4 h 8 l 4,-4 z"
         style="fill:#cb333b;fill-rule:evenodd;stroke-width:4.16584;stroke-linecap:square"
         id="path3" />
      <path
         d="M 5.9999997,19.999743 H 10.000258 V 15.000065 H 14 V 10.999806 H 10.000258 V 8.0000004 h 8 V 3.9997423 H 5.9999997 Z"
         style="fill:#fefefe;fill-opacity:1;fill-rule:evenodd;stroke:none;stroke-width:4.16584;stroke-linecap:square"
         id="path9" />
    </g>
  </g>
</svg>
