<?xml version="1.0" encoding="UTF-8"?>
<svg xmlns="http://www.w3.org/2000/svg" width="64" height="64" viewBox="0 0 64 64">
  <!-- White background -->
  <rect width="64" height="64" fill="#ffffff"/>

  <!-- Bridge Structure -->
  <!-- Bridge deck -->
  <rect x="4" y="40" width="56" height="5" rx="1" fill="#8b7355" stroke="#6b5344" stroke-width="1"/>
  <!-- Bridge railings -->
  <rect x="4" y="37" width="56" height="2" rx="0.5" fill="#a08060"/>
  <!-- Bridge supports/pillars -->
  <rect x="8" y="45" width="6" height="8" fill="#6b5344"/>
  <rect x="50" y="45" width="6" height="8" fill="#6b5344"/>
  <!-- Bridge arch underneath -->
  <path d="M 14 53 Q 32 47 50 53" fill="none" stroke="#6b5344" stroke-width="2"/>

  <!-- Robot on the bridge (facing forward) -->
  <!-- Robot body -->
  <rect x="24" y="18" width="16" height="14" rx="2" fill="#4a90d9" stroke="#2c5aa0" stroke-width="1.5"/>
  <!-- Robot head -->
  <rect x="26" y="8" width="12" height="10" rx="2" fill="#4a90d9" stroke="#2c5aa0" stroke-width="1.5"/>
  <!-- Robot face plate -->
  <rect x="28" y="10" width="8" height="6" rx="1" fill="#e8f4fc"/>
  <!-- Robot eyes -->
  <circle cx="30" cy="13" r="1.5" fill="#2c5aa0"/>
  <circle cx="34" cy="13" r="1.5" fill="#2c5aa0"/>
  <!-- Robot antenna -->
  <line x1="32" y1="8" x2="32" y2="3" stroke="#2c5aa0" stroke-width="2" stroke-linecap="round"/>
  <circle cx="32" cy="2" r="3" fill="#27ae60"/>
  <!-- Robot arms -->
  <rect x="18" y="20" width="6" height="4" rx="1.5" fill="#3a7bc8"/>
  <rect x="40" y="20" width="6" height="4" rx="1.5" fill="#3a7bc8"/>
  <!-- Robot legs -->
  <rect x="26" y="32" width="4" height="8" rx="1" fill="#3a7bc8"/>
  <rect x="34" y="32" width="4" height="8" rx="1" fill="#3a7bc8"/>

  <!-- Bidirectional Data Flow (river under bridge) -->
  <!-- Data stream background -->
  <path d="M 0 60 Q 32 55 64 60" fill="none" stroke="#27ae60" stroke-width="4" opacity="0.3"/>
  <!-- Left arrow -->
  <path d="M 6 59 L 16 59" stroke="#27ae60" stroke-width="2.5" stroke-linecap="round"/>
  <polygon points="6,59 11,56 11,62" fill="#27ae60"/>
  <!-- Right arrow -->
  <path d="M 48 59 L 58 59" stroke="#27ae60" stroke-width="2.5" stroke-linecap="round"/>
  <polygon points="58,59 53,56 53,62" fill="#27ae60"/>
  <!-- Center data dots (flowing) -->
  <circle cx="26" cy="57" r="2" fill="#27ae60"/>
  <circle cx="32" cy="56" r="2" fill="#27ae60"/>
  <circle cx="38" cy="57" r="2" fill="#27ae60"/>

  <!-- MCP Label on bridge deck -->
  <text x="32" y="44" font-family="Arial, Helvetica, sans-serif" font-size="5" font-weight="bold" fill="#ffffff" text-anchor="middle">MCP</text>
</svg>
