<?xml version="1.0" encoding="UTF-8" standalone="no"?>
<!-- Created with Inkscape (http://www.inkscape.org/) -->

<svg
   width="64"
   height="64"
   viewBox="0 0 64 64"
   version="1.1"
   id="svg1"
   inkscape:version="1.4 (e7c3feb100, 2024-10-09)"
   sodipodi:docname="quetzal.svg"
   xml:space="preserve"
   xmlns:inkscape="http://www.inkscape.org/namespaces/inkscape"
   xmlns:sodipodi="http://sodipodi.sourceforge.net/DTD/sodipodi-0.dtd"
   xmlns:xlink="http://www.w3.org/1999/xlink"
   xmlns="http://www.w3.org/2000/svg"
   xmlns:svg="http://www.w3.org/2000/svg"
   xmlns:rdf="http://www.w3.org/1999/02/22-rdf-syntax-ns#"
   xmlns:cc="http://creativecommons.org/ns#"
   xmlns:dc="http://purl.org/dc/elements/1.1/"><title
     id="title4">template</title><sodipodi:namedview
     id="namedview1"
     pagecolor="#323232"
     bordercolor="#ffffff"
     borderopacity="1"
     inkscape:showpageshadow="0"
     inkscape:pageopacity="0"
     inkscape:pagecheckerboard="1"
     inkscape:deskcolor="#191919"
     inkscape:document-units="px"
     showgrid="true"
     inkscape:zoom="11.313709"
     inkscape:cx="35.134368"
     inkscape:cy="38.139572"
     inkscape:window-width="1894"
     inkscape:window-height="999"
     inkscape:window-x="0"
     inkscape:window-y="0"
     inkscape:window-maximized="1"
     inkscape:current-layer="svg1"
     showguides="true"
     inkscape:lockguides="false"
     guidecolor="#ffff00"
     guideopacity="0.6"
     guidehicolor="#ff00ff"
     guidehiopacity="0.50196078"><inkscape:grid
       id="grid1"
       units="px"
       originx="0"
       originy="0"
       spacingx="2"
       spacingy="2"
       empcolor="#0099e5"
       empopacity="0.30196078"
       color="#0099e5"
       opacity="0.14901961"
       empspacing="4"
       enabled="true"
       visible="true" /><sodipodi:guide
       position="72,62"
       orientation="0,1"
       id="guide5"
       inkscape:locked="false"
       inkscape:label="top margin"
       inkscape:color="rgb(255,255,0)" /><sodipodi:guide
       position="64,2"
       orientation="0,1"
       id="guide6"
       inkscape:locked="false"
       inkscape:label="bottom margin"
       inkscape:color="rgb(255,255,0)" /><sodipodi:guide
       position="2,-2"
       orientation="-1,0"
       id="guide7"
       inkscape:locked="false"
       inkscape:label="right margin"
       inkscape:color="rgb(255,255,0)" /><sodipodi:guide
       position="62,64"
       orientation="-1,0"
       id="guide8"
       inkscape:locked="false"
       inkscape:label="left margin"
       inkscape:color="rgb(255,255,0)" /><sodipodi:guide
       position="64,64"
       orientation="0.70710678,-0.70710678"
       id="guide1"
       inkscape:locked="false"
       inkscape:label=""
       inkscape:color="rgb(255,255,0)" /><sodipodi:guide
       position="0,64"
       orientation="0.70710678,0.70710678"
       id="guide2"
       inkscape:label=""
       inkscape:locked="false"
       inkscape:color="rgb(255,255,0)" /></sodipodi:namedview><defs
     id="defs1"><linearGradient
       id="linearGradient33"
       inkscape:collect="always"><stop
         style="stop-color:#49884d;stop-opacity:1;"
         offset="0"
         id="stop33" /><stop
         style="stop-color:#546d21;stop-opacity:1;"
         offset="1"
         id="stop34" /></linearGradient><radialGradient
       inkscape:collect="always"
       xlink:href="#linearGradient33"
       id="radialGradient34"
       cx="36.229242"
       cy="8.7559891"
       fx="36.229242"
       fy="8.7559891"
       r="8.6531896"
       gradientTransform="matrix(1,0,0,0.65568673,0,3.0148032)"
       gradientUnits="userSpaceOnUse" /></defs><metadata
     id="metadata1"><rdf:RDF><cc:Work
         rdf:about=""><cc:license
           rdf:resource="http://creativecommons.org/licenses/by-nc-sa/4.0/" /><dc:creator><cc:Agent><dc:title>hasecilu</dc:title></cc:Agent></dc:creator><dc:subject><rdf:Bag><rdf:li>FreeCAD</rdf:li><rdf:li>command</rdf:li></rdf:Bag></dc:subject><dc:description>Template file to create icons for FreeCAD commands.</dc:description><dc:date>2024</dc:date><dc:rights><cc:Agent><dc:title>FreeCAD LGPL2+</dc:title></cc:Agent></dc:rights><dc:identifier>FreeCAD/src/</dc:identifier><dc:publisher><cc:Agent><dc:title>FreeCAD</dc:title></cc:Agent></dc:publisher><dc:relation>https://wiki.freecad.org/Artwork</dc:relation><dc:title>template</dc:title></cc:Work><cc:License
         rdf:about="http://creativecommons.org/licenses/by-nc-sa/4.0/"><cc:permits
           rdf:resource="http://creativecommons.org/ns#Reproduction" /><cc:permits
           rdf:resource="http://creativecommons.org/ns#Distribution" /><cc:requires
           rdf:resource="http://creativecommons.org/ns#Notice" /><cc:requires
           rdf:resource="http://creativecommons.org/ns#Attribution" /><cc:prohibits
           rdf:resource="http://creativecommons.org/ns#CommercialUse" /><cc:permits
           rdf:resource="http://creativecommons.org/ns#DerivativeWorks" /><cc:requires
           rdf:resource="http://creativecommons.org/ns#ShareAlike" /></cc:License></rdf:RDF></metadata><g
     id="g33"
     transform="matrix(3.4669297,0,0,3.4669297,-93.604232,1.6436019)"
     style="display:inline"><path
       style="display:inline;fill:#9b7f28;fill-opacity:1;stroke-width:2;stroke-linecap:round;stroke-linejoin:round"
       d="m 43.640628,12.953126 c 0,0 0.21875,-1.007813 -1.25,-1.914063 -1.46875,-0.90625 -1.734375,1.257813 -1.726563,1.289063 0.0078,0.03125 0.743916,0.203088 1.0625,0.273437 1.238282,0.273438 1.4375,0.02344 1.4375,0.02344 0,0 0.117191,-0.132813 0.476563,0.328125 z"
       id="path3"
       sodipodi:nodetypes="cscscc"
       inkscape:label="peak" /><path
       style="opacity:1;fill:url(#radialGradient34);stroke:#003100;stroke-width:0.1;stroke-linecap:round;stroke-linejoin:round;stroke-dasharray:none;stroke-opacity:1"
       d="m 42,10.515625 c 0,0 1.46875,0.109375 1.84375,0.0625 0.375,-0.04687 -1.046875,-0.34375 -1.046875,-0.34375 l 1.96875,-0.0625 c 0,0 -1.515625,-0.171875 -1.84375,-0.171875 -0.328125,0 1.59375,-0.25 1.78125,-0.25 0.1875,0 -0.671875,-0.421875 -1.28125,-0.234375 -0.609375,0.1875 1.34375,-0.59375 1.40625,-0.53125 0.0625,0.0625 -0.5625,-0.15625 -1.3125,0.109375 C 42.765625,9.359375 43.564584,8.8735736 44,8.65625 44.885096,8.2144831 44.751587,8.239936 43.625,8.25 43.130914,8.2544138 44.203125,8.03125 44.375,7.8125 44.546875,7.59375 43.392919,7.9404655 43.046875,8 c -0.363281,0.0625 1.375,-0.59375 1.4375,-0.765625 0.0625,-0.171875 -1.176609,0.258274 -1.859375,0.4375 -0.625,0.1640625 1.6875,-0.84375 1.9375,-1 0.25,-0.15625 -1.625,0.359375 -1.875,0.578125 -0.25,0.21875 0.625,-0.421875 0.96875,-1.03125 C 44,5.609375 42.828125,6.59375 42.609375,6.703125 42.390625,6.8125 43.28125,5.96875 43.484375,5.53125 43.6875,5.09375 42.625,6.015625 42,6.5 c -0.625,0.484375 0.28125,-0.40625 0.421875,-0.78125 0.140625,-0.375 0.190554,-0.1262693 -0.96875,0.546875 -0.121094,0.070312 0.15625,-0.296875 0.78125,-0.9375 0.625,-0.640625 -1.132813,0.2539062 -1.195313,0.3632812 C 40.976562,5.8007812 41.640625,4.734375 41.59375,4.5 41.546875,4.265625 40.902344,5.2617187 40.761719,5.5117187 40.621094,5.7617187 41.1875,4.28125 41.328125,4 41.46875,3.71875 40.42144,5.5972814 40,5.578125 39.91406,5.574215 40.617187,3.828125 40.757812,3.5390625 40.898437,3.25 39.844753,5.2843561 39.632812,5.4296875 39.496094,5.5234375 39.953125,4.7890625 40.101562,4 40.25,3.2109375 40.414062,2.6015625 39.898437,4 39.382812,5.3984375 39.210477,5.2441899 39.286152,5.007622 39.464673,4.4495425 39.65625,3.3515625 39.515625,3.1953125 39.375,3.0390625 39.101562,4.59375 39.023437,4.8515625 38.945307,5.109375 38.851562,4.3984375 38.804687,3.6328125 38.757817,2.8671875 38.578124,4.3281248 38.351562,5.1484375 38.294922,5.3535156 38.114801,3.6390238 38,3.5913506 37.885198,3.5436775 37.835717,5.162823 37.76139,4.9414258 37.612737,4.4986315 37.483513,3.9163227 37.447946,3.7684209 37.406115,3.5944726 37.196526,3.6463823 37.205758,4.4754521 37.216172,5.4106126 36.792759,4.5000674 36.574009,3.6953799 36.355259,2.8906924 36.441345,4.4116185 36.651674,5.4382178 36.70169,5.6823404 36.240062,4.9838198 36,4.3271772 35.756422,3.6609157 35.140625,2.3359375 35.570312,3.78125 36,5.2265625 35.985106,5.2922523 35.521067,4.7066795 35.057028,4.1211067 34.305727,3.4688154 34.394116,3.7344077 34.482504,4 35.178562,5.3806407 35.145417,5.4137863 35.112271,5.4469319 34.018465,3.7896504 33.709106,3.4802912 33.399747,3.170932 33.45499,3.425903 33.83064,4 34.206291,4.574097 33.808543,4.2094951 33.355553,3.8117475 32.902562,3.4139999 32.173359,2.927864 32.471669,3.3919028 32.76998,3.8559417 33.274795,4.5418059 32.637397,4 32,3.4581941 31.289475,3.0935922 31.764562,3.7786019 32.23965,4.4636116 32.814174,5.4575532 32.118116,4.7287766 31.422058,4 30.57132,3.1819805 30.891727,3.8117475 c 0.320408,0.629767 0.828641,1.3921165 0.331457,0.9501747 -0.497185,-0.4419417 -0.988809,-1.0978597 -0.730997,-0.5978597 0.257813,0.5 0.804688,1.171875 0.890625,1.2109375 0.08594,0.039063 -0.492187,-0.2734375 -0.875,-0.640625 C 30.125,4.3671875 29.8125,4.1640625 30.132812,4.5546875 30.453125,4.9453125 30.4375,5.171875 30,4.78125 29.5625,4.390625 29.243896,4.3731391 29.796875,4.8828125 30.445312,5.4804687 29.828125,5.2265625 29.53125,5.09375 29.334522,5.00574 28.90625,4.78125 29.453125,5.3046875 30,5.828125 30.601562,6.5234375 29.921875,6 29.242187,5.4765625 28.65625,4.8984375 28.984375,5.3984375 c 0.328125,0.5 0.511719,0.6796875 -0.0625,0.3046875 -0.294353,-0.1922305 -0.09375,0.1953125 0.492187,0.6484375 C 30,6.8046875 28.585937,6.15625 28.375,5.859375 28.164062,5.5625 28.282176,6.1468213 28.4375,6.3125 c 0.292968,0.3125 0.347656,0.4882812 -0.28125,0.039063 -0.366359,-0.2616849 9.69e-4,0.2844836 0.648993,0.6575899 0.128906,0.074219 0.265069,0.2174096 0.07757,0.1549096 C 28.279417,6.9629304 27.22303,6.4627658 27.78553,6.8455783 28.34803,7.2283908 29.764359,7.9969384 28.761347,7.6521335 27.287621,7.145512 27.615127,7.3710359 28.085937,7.671875 28.560665,7.9752174 28.980353,8.2513404 28.375,8.09375 27.825106,7.9505971 27.695312,7.96875 28.5625,8.359375 29.429687,8.75 28.90625,8.6914063 28.421875,8.5742188 28.098819,8.4960603 27.71875,8.421875 28,8.5390625 c 0.28125,0.1171875 1.765625,0.5390625 0.8125,0.390625 -0.953125,-0.1484375 -1.257813,0.015625 -0.625,0.203125 0.632812,0.1875 0.320312,0.1640625 -0.273438,0.09375 -0.59375,-0.070312 -0.02146,0.2499007 0.226563,0.2890625 0.371094,0.058593 0.5,0.1601563 -0.140625,0.1640625 -0.623131,0.0038 0.0881,0.279531 0.394757,0.3203125 0.293734,0.03906 -0.453275,0.107253 -0.629767,0.131514 -0.274433,0.03773 0.390759,0.153704 0.417433,0.452761 0.08835,0.990498 -0.529293,1.499691 0.07539,2.129458 0.604679,0.629767 0.887605,0.956646 1.630738,1.1163 C 30.679687,14 34.393178,14.387433 36,14.375 c 1.833812,-0.01419 2,0.140412 3.671875,-0.5625 0.512561,-0.215498 0.235294,-0.676924 0.328125,-0.826172 0.09375,-0.150725 1.457163,0.0235 1.314828,-0.02411 -0.28645,-0.09582 -1.257525,-0.310129 -0.916879,-0.303523 0.405055,0.0079 0.763703,0.0379 1.043457,0.05225 0.609375,0.03125 0.492149,-0.05497 -0.28125,-0.226569 -0.774107,-0.17176 -0.332031,-0.1875 0.253906,-0.125 0.585938,0.0625 0.683594,0.08594 0.199219,-0.136719 C 41.128906,12 40.757933,11.89938 41.570312,11.957032 c 0.605469,0.04297 0.585938,-0.02734 0.3125,-0.113279 -0.808283,-0.254024 -0.972656,-0.375 -0.4375,-0.292969 0.535157,0.08203 0.398438,0.07422 0.730469,0.06641 0.332031,-0.0078 -0.546875,-0.214844 -0.664062,-0.308594 -0.117188,-0.09375 0.21875,0.0078 0.558593,0.05469 0.339844,0.04687 0.664063,0.117188 0.113282,-0.0625 -0.550782,-0.179687 -0.480469,-0.195312 -0.03125,-0.148437 0.449218,0.04687 0.652343,0.08594 0.164062,-0.07813 -0.488281,-0.164063 -0.652344,-0.21875 -0.179687,-0.152344 0.472656,0.06641 1.167968,0.167969 0.453125,-0.02344 -0.714844,-0.191407 -0.867188,-0.292969 -0.398438,-0.238282 0.46875,0.05469 0.257813,0.0039 -0.03906,-0.07031 C 41.855469,10.515625 42,10.515625 42,10.515625 Z"
       id="path32"
       inkscape:label="punk"
       sodipodi:nodetypes="csccsssssssssssssssssssssssssssssssssssssssssssssssssssssssssssssssssssssssssssssssssssssssssssssssssssscscsssssssc" /><circle
       style="display:inline;fill:#000000;fill-opacity:1;stroke-width:2;stroke-linecap:round;stroke-linejoin:round"
       id="path8"
       cx="36.082031"
       cy="10.941406"
       r="1.0585938"
       inkscape:label="eye" /></g></svg>
