<?xml version="1.0" encoding="UTF-8" standalone="no"?>

<svg
    xmlns="http://www.w3.org/2000/svg" version="1.1"
    width="64mm"
    height="64mm"
    viewBox="0 0 64 64">
    <defs>
        <linearGradient id="Gradient1"
            x1="0%" y1="0%" x2="20%" y2="100%">
            <stop offset="10%" stop-color="#fff" />
            <stop offset="90%" stop-color="#ddd" />
        </linearGradient>
        <linearGradient id="Gradient2"
            x1="0%" y1="0%" x2="20%" y2="100%">
            <stop offset="10%" stop-color="#8ae234" stop-opacity="0.5" />
            <stop offset="90%" stop-color="#4e9a06" stop-opacity="0.5" />
        </linearGradient>
    </defs>
    <g id="Background"
        style="display:inline;fill:none;stroke:#333;stroke-width:2;
        stroke-linecap:round;stroke-linejoin:round;stroke-miterlimit:4;
        stroke-dasharray:none;stroke-dashoffset:0;stroke-opacity:1">
        <rect x="3" y="9" width="58" height="46"
            style="fill:#ddd;fill-opacity:1;stroke-linejoin:round" />
        <rect x="5" y="11" width="54" height="42"
            style="fill:url(#Gradient1);fill-opacity:1;
            stroke:#fff;stroke-linejoin:miter;" />
        <path d="
            m 7,15.375 v -2.375 h 3
            m 6.25,0 h 6.25 m 6.25,0 h 6.25 m 6.25,0 h 6.25
            m 6.25,0 h 3 v 2.375
            m 0,4.75 v 4.75 m 0,4.75 v 4.75 m 0,4.75 v 4.75
            m 0,4.75 v 2.375 h -3
            m -6.25,0 h -6.25 m -6.25,0 h -6.25 m -6.25,0 h -6.25
            m -6.25,0 h -3 v -2.375
            m 0,-4.75 v -4.75 m 0,-4.75 v -4.75 m 0,-4.75 v -4.75" />
        <path d="
            m 33,42 v -3 h 3
            m 6,0 h 6
            m 6,0 h 3
            m -24,8 v 3" />
        <path d="m 37,43 h 15 v 0" />
        <path d="m 37,47 h 15 v 0" />
    </g>
    <g id="Tolerance-frame"
      style="fill:#fff;fill-opacity:1;stroke:#000;stroke-width:1;
        stroke-linecap:round;stroke-linejoin:round;font-size:10;
        text-anchor:middle;font-family:osifont"
      transform="translate(10, 16)">
        <rect width="40.0" height="16" x="0" y="0" />
        <path d="m 3 11 l 3 -6  h 7 l -3 6 z " />
        <path d="m 16 0 v 16 " />
        <text x="26" y="11" fill="#000">0,1</text>
    </g>
</svg>
