<?xml version="1.0" encoding="UTF-8" standalone="no"?>
<svg xmlns:dc="http://purl.org/dc/elements/1.1/" xmlns:cc="http://creativecommons.org/ns#" xmlns:rdf="http://www.w3.org/1999/02/22-rdf-syntax-ns#" xmlns:svg="http://www.w3.org/2000/svg" xmlns="http://www.w3.org/2000/svg" xmlns:sodipodi="http://sodipodi.sourceforge.net/DTD/sodipodi-0.dtd" xmlns:inkscape="http://www.inkscape.org/namespaces/inkscape" version="1.1" viewBox="-4 -4 8200 4328" width="8204" height="4332">
  <metadata>
    <rdf:RDF>
      <cc:Work rdf:about="">
        <dc:format>image/svg+xml</dc:format>
        <dc:type rdf:resource="http://purl.org/dc/dcmitype/StillImage"/>
        <dc:date>2008-01-12</dc:date>
        <dc:creator>
          <cc:Agent>
            <dc:title>Jerzy Jalocha N</dc:title>
          </cc:Agent>
        </dc:creator>
        <dc:title/>
        <dc:rights>
          <cc:Agent>
            <dc:title>No rights reserved.</dc:title>
          </cc:Agent>
        </dc:rights>
        <cc:license rdf:resource="http://web.resource.org/cc/PublicDomain"/>
        <dc:description>Summary of the most common display resolutions.</dc:description>
      </cc:Work>
      <cc:License rdf:about="http://web.resource.org/cc/PublicDomain">
        <cc:permits rdf:resource="http://web.resource.org/cc/Reproduction"/>
        <cc:permits rdf:resource="http://web.resource.org/cc/Distribution"/>
        <cc:permits rdf:resource="http://web.resource.org/cc/DerivativeWorks"/>
      </cc:License>
    </rdf:RDF>
  </metadata>
  <style type="text/css">
    circle {
      stroke-width: 6;
    }                                      <!--======== Fonts ========-->
    text {
      font-size: 56px;
      text-anchor: middle;
    }
    .resolution-txt {
      font-size: 30px;
      text-anchor: middle;
    }
    .circle-txt {
      font-size: 40px;
      text-anchor: middle;
    }                                      <!--======== Rectangles ========-->
    .rect_1_1 { <!-- cyan -->
      fill: none;
      stroke: #63acb7;
      stroke-width: 7;
    }
    .rect_5_4 { <!-- yellow -->
      fill: none;
      stroke: #e0c427;
      stroke-width: 7;
    }
    .rect_4_3 { <!-- red -->
      fill: none;
      stroke: #c40000;
      stroke-width: 7;
    }
    .rect_3_2 { <!-- light green -->
      fill: none;
      stroke: #6cbe1d;
      stroke-width: 7;
    }
    .rect_16_10 { <!-- purple -->
      fill: none;
      stroke: #845a87;
      stroke-width: 7;
    }
    .rect_5_3 { <!-- orange -->
      fill: none;
      stroke: #e5851f;
      stroke-width: 7;
    }
    .rect_16_9 { <!-- blue -->
      fill: none;
      stroke: #4974ab;
      stroke-width: 7;
    }
    .rect_17_9 { <!-- olive -->
      fill: none;
      stroke: #237323;
      stroke-width: 7;
    }
    .rect_21_9 { <!-- pink -->
      fill: none;
      stroke: #d77895;
      stroke-width: 7;
    }
    .rect_various { <!-- gray -->
      fill: none;
      stroke: #797979;
      stroke-width: 7;
    }                                     <!--======== TextBoxes ========-->
    .txtbox_1_1 {
      fill: #85e6e5;
      stroke: #467981;
      stroke-width: 6;
      stroke-linejoin: round;
    }
    .txtbox_5_4 {
      fill: #fce94f;
      stroke: #b19000;
      stroke-width: 6;
      stroke-linejoin: round;
    }
    .txtbox_4_3 {
      fill: #ef6666;
      stroke: #810000;
      stroke-width: 6;
      stroke-linejoin: round;
    }
    .txtbox_3_2 {
      fill: #8ae234;
      stroke: #4e9a06;
      stroke-width: 6;
      stroke-linejoin: round;
    }
    .txtbox_16_10 {
      fill: #b58cb1;
      stroke: #5c3566;
      stroke-width: 6;
      stroke-linejoin: round;
    }
    .txtbox_5_3 {
      fill: #fcaf3e;
      stroke: #ce5c00;
      stroke-width: 6;
      stroke-linejoin: round;
    }
    .txtbox_16_9 {
      fill: #729fcf;
      stroke: #204a87;
      stroke-width: 6;
      stroke-linejoin: round;
    }
    .txtbox_17_9 {
      fill: #6aaf6c;
      stroke: #2a452a;
      stroke-width: 6;
      stroke-linejoin: round;
    }
    .txtbox_21_9 {
      fill: #ffc0cb;
      stroke: #b03060;
      stroke-width: 6;
      stroke-linejoin: round;
    }
    .txtbox_various {
      fill: #bdbdbd;
      stroke: #363636;
      stroke-width: 6;
      stroke-linejoin: round;
    }                                <!--======== TextBoxesArrows with colored rectangle corners ========-->
    .txtboxarrow_1_1 {
      marker-start: url(#Corner_1_1);
      stroke: #000000;
      stroke-width: 3;
    }
    .txtboxarrow_5_4 {
      marker-start: url(#Corner_5_4);
      stroke: #000000;
      stroke-width: 3;
    }
    .txtboxarrow_4_3 {
      marker-start: url(#Corner_4_3);
      stroke: #000000;
      stroke-width: 3;
    }
    .txtboxarrow_3_2 {
      marker-start: url(#Corner_3_2);
      stroke: #000000;
      stroke-width: 3;
    }
    .txtboxarrow_16_10 {
      marker-start: url(#Corner_16_10);
      stroke: #000000;
      stroke-width: 3;
    }
    .txtboxarrow_5_3 {
      marker-start: url(#Corner_5_3);
      stroke: #000000;
      stroke-width: 3;
    }
    .txtboxarrow_16_9 {
      marker-start: url(#Corner_16_9);
      stroke: #000000;
      stroke-width: 3;
    }
    .txtboxarrow_17_9 {
      marker-start: url(#Corner_17_9);
      stroke: #000000;
      stroke-width: 3;
    }
    .txtboxarrow_21_9 {
      marker-start: url(#Corner_21_9);
      stroke: #000000;
      stroke-width: 3;
    }
    .txtboxarrow_various {
      marker-start: url(#Corner_various);
      stroke: #000000;
      stroke-width: 3;
    }
  </style>
  <defs>                               <!--======== Colored rectangle corners ========-->
    <marker id="Corner_1_1" refX="0" refY="0" style="overflow:visible">
      <path d="M 0,0 -10,0 C -5,0 0,-5 0,-10 z" style="stroke:#63acb7; fill:#63acb7"/>
    </marker>
    <marker id="Corner_5_4" refX="0" refY="0" style="overflow:visible">
      <path d="M 0,0 -10,0 C -5,0 0,-5 0,-10 z" style="stroke:#e0c427; fill:#e0c427"/>
    </marker>
    <marker id="Corner_4_3" refX="0" refY="0" style="overflow:visible">
      <path d="M 0,0 -10,0 C -5,0 0,-5 0,-10 z" style="stroke:#c40000; fill:#c40000"/>
    </marker>
    <marker id="Corner_3_2" refX="0" refY="0" style="overflow:visible">
      <path d="M 0,0 -10,0 C -5,0 0,-5 0,-10 z" style="stroke:#6cbe1d; fill:#6cbe1d"/>
    </marker>
    <marker id="Corner_16_10" refX="0" refY="0" style="overflow:visible">
      <path d="M 0,0 -10,0 C -5,0 0,-5 0,-10 z" style="stroke:#845a87; fill:#845a87"/>
    </marker>
    <marker id="Corner_5_3" refX="0" refY="0" style="overflow:visible">
      <path d="M 0,0 -10,0 C -5,0 0,-5 0,-10 z" style="stroke:#e5851f; fill:#e5851f"/>
    </marker>
    <marker id="Corner_16_9" refX="0" refY="0" style="overflow:visible">
      <path d="M 0,0 -10,0 C -5,0 0,-5 0,-10 z" style="stroke:#4974ab; fill:#4974ab"/>
    </marker>
    <marker id="Corner_17_9" refX="0" refY="0" style="overflow:visible">
      <path d="M 0,0 -10,0 C -5,0 0,-5 0,-10 z" style="stroke:#237323; fill:#237323"/>
    </marker>
    <marker id="Corner_21_9" refX="0" refY="0" style="overflow:visible">
      <path d="M 0,0 -10,0 C -5,0 0,-5 0,-10 z" style="stroke:#d77895; fill:#d77895"/>
    </marker>
    <marker id="Corner_various" refX="0" refY="0" style="overflow:visible">
      <path d="M 0,0 -10,0 C -5,0 0,-5 0,-10 z" style="stroke:#797979; fill:#797979"/>
    </marker>
  </defs>
  <g id="White-Background">
    <rect x="0" y="0" width="8192" height="4320" style="fill:#ffffff"/>
  </g>
  <g id="Diagonal-Lines-for-Ratios">
    <path class="rect_1_1" d="M 0,0 4320,4320" style="stroke-width:4"/>
    <path class="rect_5_4" d="M 0,0 5401,4320" style="stroke-width:4"/>
    <path class="rect_4_3" d="M 0,0 5761,4320" style="stroke-width:4"/>
    <path class="rect_3_2" d="M 0,0 6481,4320" style="stroke-width:4"/>
    <path class="rect_16_10" d="M 0,0 6914,4320" style="stroke-width:4"/>
    <path class="rect_5_3" d="M 0,0 7202,4320" style="stroke-width:4"/>
    <path class="rect_16_9" d="M 0,0 7682,4320" style="stroke-width:4"/>
    <path class="rect_17_9" d="M 0,0 8192,4320" style="stroke-width:4"/>
    <path class="rect_21_9" d="M 0,0 8192,3456" style="stroke-width:4"/>
  </g>
  <g id="Rectangles-showing-the-resolution-sizes">
    <rect id="rect-8192x4320" class="rect_17_9" x="0" y="0" width="8192" height="4320"/>
    <rect id="rect-7680x4320" class="rect_16_9" x="0" y="0" width="7680" height="4320"/>
    <rect id="rect-5120x2880" class="rect_16_9" x="0" y="0" width="5120" height="2880"/>
    <rect id="rect-5120x2160" class="rect_21_9" x="0" y="0" width="5120" height="2160"/>
    <rect id="rect-4096x2160" class="rect_17_9" x="0" y="0" width="4096" height="2160"/>
    <rect id="rect-3840x2400" class="rect_16_10" x="0" y="0" width="3840" height="2400"/>
    <rect id="rect-3840x2160" class="rect_16_9" x="0" y="0" width="3840" height="2160"/>
    <rect id="rect-3440x1440" class="rect_21_9" x="0" y="0" width="3440" height="1440"/>
    <rect id="rect-3200x2400" class="rect_4_3" x="0" y="0" width="3200" height="2400"/>
    <rect id="rect-3200x2048" class="rect_various" x="0" y="0" width="3200" height="2048"/>
    <rect id="rect-2560x2048" class="rect_5_4" x="0" y="0" width="2560" height="2048"/>
    <rect id="rect-2560x1600" class="rect_16_10" x="0" y="0" width="2560" height="1600"/>
    <rect id="rect-2560x1440" class="rect_16_9" x="0" y="0" height="1440" width="2560"/>
    <rect id="rect-2560x1080" class="rect_21_9" x="0" y="0" width="2559" height="1079"/>
    <rect id="rect-2048x1536" class="rect_4_3" x="0" y="0" width="2048" height="1536"/>
    <rect id="rect-2048x1080" class="rect_17_9" x="0" y="0" width="2048" height="1080"/>
    <rect id="rect-1920x1920" class="rect_1_1" x="0" y="0" width="1920" height="1920"/>
    <rect id="rect-1920x1200" class="rect_16_10" x="0" y="0" width="1920" height="1200"/>
    <rect id="rect-1920x1080" class="rect_16_9" x="0" y="0" width="1920" height="1080"/>
    <rect id="rect-1680x1050" class="rect_16_10" x="0" y="0" width="1680" height="1050"/>
    <rect id="rect-1600x1200" class="rect_4_3" x="0" y="0" width="1600" height="1200"/>
    <rect id="rect-1600x900" class="rect_16_9" x="0" y="0" width="1600" height="900"/>
<!--<rect id="rect-1440x1080" class="rect_4_3" x="0" y="0" width="1440" height="1080"/> No source or reference found for a name of this resolution! -->
<!--<rect id="rect-1440x960" class="rect_3_2" x="0" y="0" width="1440" height="960"/> No source or reference found for a name of this resolution! -->
    <rect id="rect-1440x900" class="rect_16_10" x="0" y="0" width="1440" height="900"/>
    <rect id="rect-1400x1050" class="rect_4_3" x="0" y="0" width="1400" height="1050"/>
    <rect id="rect-1366x768" class="rect_16_9" x="0" y="0" width="1366" height="768"/>
    <rect id="rect-1280x1024" class="rect_5_4" x="0" y="0" width="1280" height="1024"/>
    <rect id="rect-1280x960" class="rect_4_3" x="0" y="0" width="1280" height="960"/>
    <rect id="rect-1280x800" class="rect_16_10" x="0" y="0" width="1280" height="800"/>
    <rect id="rect-1280x768" class="rect_5_3" x="0" y="0" width="1280" height="768"/>
    <rect id="rect-1280x720" class="rect_16_9" x="0" y="0" width="1280" height="720"/>
    <rect id="rect-1152x864" class="rect_4_3" x="0" y="0" width="1152" height="864"/>
<!--<rect id="rect-1152x768" class="rect_3_2" x="0" y="0" width="1152" height="768"/> No source or reference found for the name WXGA! -->
    <rect id="rect-1024x768" class="rect_4_3" x="0" y="0" width="1024" height="768"/>
    <rect id="rect-1024x600" class="rect_various" x="0" y="0" width="1024" height="600"/>
    <rect id="rect-1024x576" class="rect_16_9" x="0" y="0" width="1024" height="576"/>
    <rect id="rect-854x480" class="rect_16_9" x="0" y="0" width="854" height="480"/>
    <rect id="rect-800x600" class="rect_4_3" x="0" y="0" width="800" height="600"/>
    <rect id="rect-800x480" class="rect_5_3" x="0" y="0" width="800" height="480"/>
    <rect id="rect-768x576" class="rect_4_3" x="0" y="0" width="768" height="576"/>
    <rect id="rect-640x480" class="rect_4_3" x="0" y="0" width="640" height="480"/>
    <rect id="rect-480x320" class="rect_3_2" x="0" y="0" width="480" height="320"/>
    <rect id="rect-384x288" class="rect_4_3" x="0" y="0" width="384" height="288"/>
    <rect id="rect-352x288" class="rect_various" x="0" y="0" width="352" height="288"/>
    <rect id="rect-320x240" class="rect_4_3" x="0" y="0" width="320" height="240"/>
    <rect id="rect-320x200" class="rect_16_10" x="0" y="0" width="320" height="200"/>
  </g>
  <g id="Group-of-Text-Boxes">
    <g id="R-8192x4320">
      <path d="M 8192,4320 8040,4065" class="txtboxarrow_17_9"/>
      <rect x="7620" y="3960" width="420" height="105" class="txtbox_17_9"/>
      <text x="7830" y="4010">8K Full Format</text>
      <text x="7830" y="4050" class="resolution-txt">8192 × 4320</text>
    </g>
    <g id="UHD-2-7680x4320">
      <path d="M 7680,4320 7430,4055" class="txtboxarrow_16_9"/>
      <rect x="7160" y="3950" width="270" height="105" class="txtbox_16_9"/>
      <text x="7295" y="4000">8K UHD</text>
      <text x="7295" y="4040" class="resolution-txt">7680 × 4320</text>
    </g>
    <g id="5K-5120x2880">
      <path d="M 5120,2880 5350,2585" class="txtboxarrow_16_9"/>
      <rect x="5350" y="2480" width="270" height="105" class="txtbox_16_9"/>
      <text x="5485" y="2530">5K UHD</text>
      <text x="5485" y="2570" class="resolution-txt">5120 × 2880</text>
    </g>
    <g id="5K-U-5120x2160">
      <path d="M 5120,2160 5220,1960" class="txtboxarrow_21_9"/>
      <rect x="5220" y="1855" width="380" height="105" class="txtbox_21_9"/>
      <text x="5410" y="1905">5K Ultrawide</text>
      <text x="5410" y="1945" class="resolution-txt">5120 × 2160</text>
    </g>
    <g id="4K-4096x2160">
      <path d="M 4096,2160 4440,1945" class="txtboxarrow_17_9"/>
      <rect x="4440" y="1840" width="270" height="105" class="txtbox_17_9"/>
      <text x="4575" y="1890">4K DCI</text>
      <text x="4575" y="1930" class="resolution-txt">4096 × 2160</text>
    </g>
    <g id="WQUXGA-3840x2400">
      <path d="M 3840,2400 3550,2570" class="txtboxarrow_16_10"/>
      <rect x="3280" y="2570" width="270" height="105" class="txtbox_16_10"/>
      <text x="3415" y="2620">WQUXGA</text>
      <text x="3415" y="2660" class="resolution-txt">3840 × 2400</text>
    </g>
    <g id="UHD-1-3840x2160">
      <path d="M 3840,2160 4030,1935" class="txtboxarrow_16_9"/>
      <rect x="4030" y="1830" width="270" height="105" class="txtbox_16_9"/>
      <text x="4165" y="1880">4K UHD</text>
      <text x="4165" y="1920" class="resolution-txt">3840 × 2160</text>
    </g>
    <g id="UWQHD-3440x1440">
      <path d="M 3440,1440 3515,1285" class="txtboxarrow_21_9"/>
      <rect x="3515" y="1180" width="300" height="105" class="txtbox_21_9"/>
      <text x="3665" y="1230">UWQHD</text>
      <text x="3665" y="1270" class="resolution-txt">3440 × 1440</text>
    </g>
    <g id="QUXGA-3200x2400">
      <path d="M 3200,2400 3070,2555" class="txtboxarrow_4_3"/>
      <rect x="2800" y="2555" width="270" height="105" class="txtbox_4_3"/>
      <text x="2935" y="2605">QUXGA</text>
      <text x="2935" y="2645" class="resolution-txt">3200 × 2400</text>
    </g>
    <g id="WQSXGA-3200x2048">
      <path d="M 3200,2048 2895,2225" class="txtboxarrow_various"/>
      <rect x="2625" y="2225" width="270" height="105" class="txtbox_various"/>
      <text x="2760" y="2275">WQSXGA</text>
      <text x="2760" y="2315" class="resolution-txt">3200 × 2048</text>
    </g>
    <g id="QSXGA-2560x2048">
      <path d="M 2560,2048 2430,2210" class="txtboxarrow_5_4"/>
      <rect x="2160" y="2210" width="270" height="105" class="txtbox_5_4"/>
      <text x="2295" y="2260">QSXGA</text>
      <text x="2295" y="2300" class="resolution-txt">2560 × 2048</text>
    </g>
    <g id="WQXGA-2560x1600">
      <path d="M 2560,1600 2270,1770" class="txtboxarrow_16_10"/>
      <rect x="2000" y="1770" width="270" height="105" class="txtbox_16_10"/>
      <text x="2135" y="1820">WQXGA</text>
      <text x="2135" y="1860" class="resolution-txt">2560 × 1600</text>
    </g>
    <g id="WQHD-2560x1440">
      <path d="M 2560,1440 3030,1255" class="txtboxarrow_16_9"/>
      <rect x="3030" y="1150" width="270" height="105" class="txtbox_16_9"/>
      <text x="3165" y="1200">(W)QHD</text>
      <text x="3165" y="1240" class="resolution-txt">2560 × 1440</text>
    </g>
    <g id="UWFHD-2560x1080">
      <path d="M 2560,1080 2750,940" class="txtboxarrow_21_9"/>
      <rect x="2750" y="835" width="270" height="105" class="txtbox_21_9"/>
      <text x="2885" y="885">UWFHD</text>
      <text x="2885" y="925" class="resolution-txt">2560 × 1080</text>
    </g>
    <g id="QXGA-2048x1536">
      <path d="M 2048,1536 1890,1630" class="txtboxarrow_4_3"/>
      <rect x="1620" y="1630" width="270" height="105" class="txtbox_4_3"/>
      <text x="1755" y="1680">QXGA</text>
      <text x="1755" y="1720" class="resolution-txt">2048 × 1536</text>
    </g>
    <g id="2K-2048x1080">
      <path d="M 2048,1080 2445,935" class="txtboxarrow_17_9"/>
      <rect x="2445" y="830" width="270" height="105" class="txtbox_17_9"/>
      <text x="2560" y="880">2K DCI</text>
      <text x="2670" y="860" style="font-size:30px">‡</text>
      <text x="2580" y="920" class="resolution-txt">2048 × 1080</text>
    </g>
    <g id="SQFHD-1920x1920">
      <path d="M 1920,1920 1790,2080" class="txtboxarrow_1_1"/>
      <rect x="1520" y="2080" width="270" height="105" class="txtbox_1_1"/>
      <text x="1655" y="2130">SQFHD</text>
      <text x="1655" y="2170" class="resolution-txt">1920 × 1920</text>
    </g>
    <g id="WUXGA-1920x1200">
      <path d="M 1920,1200 1740,1470" class="txtboxarrow_16_10"/>
      <rect x="1470" y="1470" width="270" height="105" class="txtbox_16_10"/>
      <text x="1595" y="1520">WUXGA</text>
      <text x="1595" y="1560" class="resolution-txt">1920 × 1200</text>
    </g>
    <g id="Full-HD-1920x1080">
      <path d="M 1920,1080 2140,920" class="txtboxarrow_16_9"/>
      <rect x="2140" y="815" width="270" height="105" class="txtbox_16_9"/>
      <text x="2275" y="865">Full HD</text>
      <text x="2275" y="905" class="resolution-txt">1920 × 1080</text>
    </g>
    <g id="WSXGAplus-1680x1050">
      <path d="M 1680,1050 1755,1020" class="txtboxarrow_16_10"/>
      <rect x="1755" y="915" width="270" height="105" class="txtbox_16_10"/>
      <text x="1890" y="965">WSXGA+</text>
      <text x="1890" y="1005" class="resolution-txt">1680 × 1050</text>
    </g>
    <g id="UXGA-1600x1200">
      <path d="M 1600,1200 1430,1460" class="txtboxarrow_4_3"/>
      <rect x="1160" y="1460" width="270" height="105" class="txtbox_4_3"/>
      <text x="1295" y="1510">UXGA</text>
      <text x="1295" y="1550" class="resolution-txt">1600 × 1200</text>
    </g>
    <g id="SXGAplus-1400x1050">
      <path d="M 1400,1050 1225,1315" class="txtboxarrow_4_3"/>
      <rect x="995" y="1315" width="230" height="105" class="txtbox_4_3"/>
      <text x="1110" y="1365">SXGA+</text>
      <text x="1110" y="1405" class="resolution-txt">1400 × 1050</text>
    </g>
    <g id="WSXGA-1600x900">
      <path d="M 1600,900 1730,885" class="txtboxarrow_16_9"/>
      <rect x="1730" y="780" width="220" height="105" class="txtbox_16_9"/>
      <text x="1840" y="830">WSXGA</text>
      <text x="1840" y="870" class="resolution-txt">1600 × 900</text>
    </g>
<!-- 
    <g id="1440x1080">
      <path d="M 1440,1080 1390,1260" class="txtboxarrow_4_3"/>
      <rect x="1160" y="1260" width="230" height="55" class="txtbox_4_3"/>
      <text x="1275" y="1300" class="resolution-txt">1440 × 1080</text>
    </g>  No source or reference found for a name of this resolution! -->
<!-- 
    <g id="R-1440x960">
      <path d="M 1440,960 1950,920" class="txtboxarrow_3_2"/>
      <rect x="1730" y="920" width="220" height="55" class="txtbox_3_2" />
      <text x="1840" y="960" class="resolution-txt">1440 × 960</text>
    </g>  No source or reference found for a name of this resolution! -->
    <g id="WXGA+-1440x900">
      <path d="M 1440,900 1485,875" class="txtboxarrow_16_10"/>
      <rect x="1485" y="770" width="220" height="105" class="txtbox_16_10"/>
      <text x="1595" y="820">WXGA+</text>
      <text x="1595" y="860" class="resolution-txt">1440 × 900</text>
    </g>
    <g id="FWXGA-1366x768">
      <path d="M 1366,768 1770,575" class="txtboxarrow_16_9"/>
      <rect x="1770" y="470" width="230" height="105" class="txtbox_16_9"/>
      <text x="1885" y="520">FWXGA</text>
      <text x="1885" y="560" class="resolution-txt">1366 × 768</text>
    </g>
    <g id="SXGA-1280x1024">
      <path d="M 1280,1024 1110,1185" class="txtboxarrow_5_4"/>
      <rect x="880" y="1185" width="230" height="105" class="txtbox_5_4"/>
      <text x="995" y="1235">SXGA</text>
      <text x="995" y="1275" class="resolution-txt">1280 × 1024</text>
    </g>
    <g id="QuadVGA-1280x960">
      <path d="M 1280,960 1110,1060" class="txtboxarrow_4_3"/>
      <rect x="850" y="1060" width="260" height="105" class="txtbox_4_3"/>
      <text x="980" y="1110">QuadVGA</text>
      <text x="980" y="1150" class="resolution-txt">1280 × 960</text>
    </g>
    <g id="WXGA-1280x800">
      <path d="M 1280,800 1550,735" class="txtboxarrow_16_10"/>
      <rect x="1550" y="630" width="230" height="105" class="txtbox_16_10"/>
      <text x="1655" y="680">WXGA</text>
      <text x="1655" y="720" class="resolution-txt">1280 × 800</text>
    </g>
    <g id="WXGA-1280x768">
      <path d="M 1280,768 1500,575" class="txtboxarrow_5_3"/>
      <rect x="1500" y="470" width="230" height="105" class="txtbox_5_3"/>
      <text x="1615" y="520">WXGA</text>
      <text x="1615" y="560" class="resolution-txt">1280 × 768</text>
    </g>
    <g id="HD-1280x720">
      <path d="M 1280,720 1470,440" class="txtboxarrow_16_9"/>
      <rect x="1470" y="335" width="270" height="105" class="txtbox_16_9"/>
      <text x="1605" y="385">HD 720p</text>
      <text x="1605" y="425" class="resolution-txt">1280 × 720</text>
    </g>
    <g id="XGAplus-1152x864">
      <path d="M 1152,864 815,1040" class="txtboxarrow_4_3"/>
      <rect x="585" y="1040" width="230" height="105" class="txtbox_4_3"/>
      <text x="700" y="1090">XGA+</text>
      <text x="700" y="1130" class="resolution-txt">1152 × 864</text>
    </g>
<!--<g id="1152x768">
      <path d="M 1152,768 1180,625" class="txtboxarrow_3_2"/>
      <rect x="1180" y="520" width="230" height="105" class="txtbox_3_2"/>
      <text x="1295" y="570">XGA+</text>
      <text x="1295" y="605" class="resolution-txt">1152 × 768</text>
    </g>  No source or reference found for a name! of this resolution! -->
    <g id="XGA-1024x768">
      <path d="M 1024,768 720,920" class="txtboxarrow_4_3"/>
      <rect x="490" y="920" width="230" height="105" class="txtbox_4_3"/>
      <text x="605" y="970">XGA</text>
      <text x="605" y="1010" class="resolution-txt">1024 × 768</text>
    </g>
    <g id="WSVGA-1024x600">
      <path d="M 1024,600 1120,525" class="txtboxarrow_various"/>
      <rect x="1120" y="420" width="250" height="105" class="txtbox_various"/>
      <text x="1245" y="470">WSVGA</text>
      <text x="1245" y="510" class="resolution-txt">1024 × 600</text>
    </g>
    <g id="PAL-1024x576">
      <path d="M 1024,576 1095,395" class="txtboxarrow_16_9"/>
      <rect x="1095" y="290" width="320" height="105" class="txtbox_16_9"/>
      <text x="1208" y="340">WSVGA</text>
      <text x="1358" y="340" style="font-size:30px">(PAL)†</text>
      <text x="1258" y="380" class="resolution-txt">1024 × 576</text>
    </g>
    <g id="FWVGA-854x480">
      <path d="M 854,480 1120,235" class="txtboxarrow_16_9"/>
      <rect x="1120" y="130" width="340" height="105" class="txtbox_16_9"/>
      <text x="1230" y="180">FWVGA</text>
      <text x="1390" y="180" style="font-size:30px">(NTSC)†</text>
      <text x="1290" y="220" class="resolution-txt">854 × 480</text>
    </g>
    <g id="SVGA-800x600">
      <path d="M 800,600 670,795" class="txtboxarrow_4_3"/>
      <rect x="440" y="795" width="230" height="105" class="txtbox_4_3"/>
      <text x="555" y="845">SVGA</text>
      <text x="555" y="885" class="resolution-txt">800 × 600</text>
    </g>
    <g id="WVGA-800x480">
      <path d="M 800,480 880,220" class="txtboxarrow_5_3"/>
      <rect x="880" y="115" width="210" height="105" class="txtbox_5_3"/>
      <text x="985" y="165">WVGA</text>
      <text x="985" y="205" class="resolution-txt">800 × 480</text>
    </g>
    <g id="PAL-768x576">
      <path d="M 768,576 620,665" class="txtboxarrow_4_3"/>
      <rect x="390" y="665" width="230" height="105" class="txtbox_4_3"/>
      <text x="505" y="715">PAL*</text>
      <text x="505" y="755" class="resolution-txt">768 × 576</text>
    </g>
    <g id="VGA-640x480">
      <path d="M 640,480 530,540" class="txtboxarrow_4_3"/>
      <rect x="260" y="540" width="270" height="105" class="txtbox_4_3"/>
      <text x="334" y="590">VGA</text>
      <text x="460" y="590" style="font-size:30px">(NTSC)*</text>
      <text x="395" y="630" class="resolution-txt">640 × 480</text>
    </g>
    <g id="HVGA-480x320">
      <path d="M 480,320 540,255" class="txtboxarrow_3_2"/>
      <rect x="540" y="150" width="210" height="105" class="txtbox_3_2"/>
      <text x="645" y="200">HVGA</text>
      <text x="645" y="240" class="resolution-txt">480 × 320</text>
    </g>
    <g id="SIF-384x288">
      <path d="M 384,288 355,400" class="txtboxarrow_4_3"/>
      <rect x="250" y="400" width="210" height="105" class="txtbox_4_3"/>
      <text x="360" y="450">SIF**</text>
      <text x="360" y="490" class="resolution-txt">384 × 288</text>
    </g>
    <g id="CIF-352x288">
      <path d="M 352,288 225,400" class="txtboxarrow_various"/>
      <rect x="45" y="400" width="180" height="105" class="txtbox_various"/>
      <text x="135" y="450">CIF</text>
      <text x="135" y="490" class="resolution-txt">352 × 288</text>
    </g>
    <g id="QVGA-320x240">
      <path d="M 320,240 230,260" class="txtboxarrow_4_3"/>
      <rect x="30" y="260" width="200" height="105" class="txtbox_4_3"/>
      <text x="130" y="310">QVGA</text>
      <text x="130" y="350" class="resolution-txt">320 × 240</text>
    </g>
    <g id="CGA-320x200">
      <path d="M 320,200 400,125" class="txtboxarrow_16_10"/>
      <rect x="400" y="20" width="200" height="105" class="txtbox_16_10"/>
      <text x="500" y="70">CGA</text>
      <text x="500" y="110" class="resolution-txt">320 × 200</text>
    </g>
  </g>
  <g id="Group-of-Circles">
    <g id="Circle-21:9">
      <circle class="txtbox_21_9" cx="3690" cy="1557" r="60"/>
      <text class="circle-txt" x="3650" y="1572">≈</text>
      <text class="circle-txt" x="3700" y="1559">21:9</text>
      <text class="circle-txt" x="3700" y="1589" style="font-size:30px">(7:3)</text>
    </g>
    <g id="Circle-17:9">
      <circle class="txtbox_17_9" cx="3290" cy="1735" r="55"/>
      <text class="circle-txt" x="3290" y="1745">≈17:9</text>
    </g>
    <g id="Circle-16:9">
      <circle class="txtbox_16_9" cx="3022" cy="1700" r="50"/>
      <text class="circle-txt" x="3022" y="1710">16:9</text>
    </g>
    <g id="Circle-16:10">
      <circle class="txtbox_16_10" cx="2775" cy="1735" r="55"/>
      <text class="circle-txt" x="2775" y="1738">16:10</text>
      <text class="circle-txt" x="2775" y="1768" style="font-size:30px">(8:5)</text>
        </g>
    <g id="Circle-5:3">
      <circle class="txtbox_5_3" cx="3070" cy="1842" r="50"/>
      <text class="circle-txt" x="3070" y="1852">5:3</text>
    </g>
    <g id="Circle-3:2">
      <circle class="txtbox_3_2" cx="2850" cy="1900" r="50"/>
      <text class="circle-txt" x="2850" y="1910">3:2</text>
    </g>
    <g id="Circle-4:3">
      <circle class="txtbox_4_3" cx="2636" cy="1977" r="50"/>
      <text class="circle-txt" x="2636" y="1987">4:3</text>
    </g>
    <g id="Circle-5:4">
      <circle class="txtbox_5_4" cx="2408" cy="1926" r="50"/>
      <text class="circle-txt" x="2408" y="1936">5:4</text>
    </g>
    <g id="Circle-1:1">
      <circle class="txtbox_1_1" cx="1980" cy="1980" r="50"/>
      <text class="circle-txt" x="1980" y="1990">1:1</text>
    </g>
  </g>
  <g id="Notes">
    <text xml:space="preserve" style="font-size:3em;text-align:start;text-anchor:start">
      <tspan x="100" y="3331">*  NTSC and PAL/SECAM are analog video standards with no fixed horizontal resolution. The resolutions</tspan>
      <tspan x="100" y="3419">    depicted here for 4:3 aspect ratio assume square pixels, but the actual horizontal resolution (in non-square</tspan>
      <tspan x="100" y="3507">    pixels) ranges from 320 (VHS/Betamax) to 720 (DVD) for both standards.</tspan>
      <tspan x="100" y="3615">** Although computer industry defines SIF as 384 × 288 for PAL countries (for NTSC countries, it is equivalent to QVGA),</tspan>
      <tspan x="100" y="3703">    MPEG-1 defines it as 352 × 288 (CIF) or 360 × 288 (for NTSC: 352 × 240 or 360 × 240).</tspan>
      <tspan x="100" y="3811">†  The resolutions depicted here for 16:9 widescreen NTSC and PAL/SECAM assume square pixels, but the</tspan>
      <tspan x="100" y="3899">    actual horizontal resolution (in non-square pixels) ranges from 520 (PALplus) to 720 (DVD).</tspan>
      <tspan x="100" y="4007">‡  Although Digital Cinema System specifies 2K at the depicted resolution in square pixels, in some</tspan>
      <tspan x="100" y="4095">    situations it can assume non-square pixels and go as high as 2048 × 1536. Aspect ratio 17:9 is approximate.</tspan>
    </text>
  </g>
</svg>